<mxfile host="app.diagrams.net" modified="2024-05-18T13:52:47.914Z" agent="Mozilla/5.0 (Windows NT 10.0; Win64; x64; rv:125.0) Gecko/20100101 Firefox/125.0" etag="BgRf63hmhyicrw66OHGt" version="24.4.0" type="device">
  <diagram name="Page-1" id="jBr5MP4wOGQv4xboBG8C">
    <mxGraphModel dx="2463" dy="663" grid="1" gridSize="10" guides="1" tooltips="1" connect="1" arrows="1" fold="1" page="1" pageScale="1" pageWidth="850" pageHeight="1100" math="0" shadow="0">
      <root>
        <mxCell id="0" />
        <mxCell id="1" parent="0" />
        <mxCell id="2M9jYYgcKPKvZktC2pb6-4" value="orderbook" style="rounded=1;arcSize=10;whiteSpace=wrap;html=1;align=center;" vertex="1" parent="1">
          <mxGeometry x="230" y="230" width="100" height="40" as="geometry" />
        </mxCell>
        <mxCell id="2M9jYYgcKPKvZktC2pb6-6" value="market" style="rounded=1;arcSize=10;whiteSpace=wrap;html=1;align=center;" vertex="1" parent="1">
          <mxGeometry x="230" y="30" width="100" height="40" as="geometry" />
        </mxCell>
        <mxCell id="2M9jYYgcKPKvZktC2pb6-7" value="" style="triangle;whiteSpace=wrap;html=1;direction=south;" vertex="1" parent="1">
          <mxGeometry x="255" y="310" width="50" height="30" as="geometry" />
        </mxCell>
        <mxCell id="2M9jYYgcKPKvZktC2pb6-8" value="saleslist(asc)" style="rounded=1;arcSize=10;whiteSpace=wrap;html=1;align=center;" vertex="1" parent="1">
          <mxGeometry x="400" y="430" width="100" height="40" as="geometry" />
        </mxCell>
        <mxCell id="2M9jYYgcKPKvZktC2pb6-9" value="&lt;span&gt;&lt;span data-dobid=&quot;hdw&quot;&gt;purchases&lt;/span&gt;&lt;/span&gt;list(dsc)" style="rounded=1;arcSize=10;whiteSpace=wrap;html=1;align=center;" vertex="1" parent="1">
          <mxGeometry x="60" y="430" width="100" height="40" as="geometry" />
        </mxCell>
        <mxCell id="2M9jYYgcKPKvZktC2pb6-10" value="order" style="rounded=1;arcSize=10;whiteSpace=wrap;html=1;align=center;" vertex="1" parent="1">
          <mxGeometry x="230" y="756.72" width="100" height="40" as="geometry" />
        </mxCell>
        <mxCell id="2M9jYYgcKPKvZktC2pb6-12" value="" style="endArrow=none;html=1;rounded=0;exitX=0.5;exitY=1;exitDx=0;exitDy=0;entryX=0.5;entryY=0;entryDx=0;entryDy=0;" edge="1" parent="1" source="2M9jYYgcKPKvZktC2pb6-48" target="2M9jYYgcKPKvZktC2pb6-4">
          <mxGeometry relative="1" as="geometry">
            <mxPoint x="310" y="200" as="sourcePoint" />
            <mxPoint x="280" y="120" as="targetPoint" />
          </mxGeometry>
        </mxCell>
        <mxCell id="2M9jYYgcKPKvZktC2pb6-13" value="N" style="resizable=0;html=1;whiteSpace=wrap;align=right;verticalAlign=bottom;" connectable="0" vertex="1" parent="2M9jYYgcKPKvZktC2pb6-12">
          <mxGeometry x="1" relative="1" as="geometry" />
        </mxCell>
        <mxCell id="2M9jYYgcKPKvZktC2pb6-21" value="" style="endArrow=none;html=1;rounded=0;exitX=0.5;exitY=1;exitDx=0;exitDy=0;entryX=0;entryY=0.5;entryDx=0;entryDy=0;" edge="1" parent="1" source="2M9jYYgcKPKvZktC2pb6-4" target="2M9jYYgcKPKvZktC2pb6-7">
          <mxGeometry relative="1" as="geometry">
            <mxPoint x="200" y="300" as="sourcePoint" />
            <mxPoint x="360" y="300" as="targetPoint" />
          </mxGeometry>
        </mxCell>
        <mxCell id="2M9jYYgcKPKvZktC2pb6-22" value="" style="endArrow=none;html=1;rounded=0;exitX=0.5;exitY=0;exitDx=0;exitDy=0;entryX=0.5;entryY=0;entryDx=0;entryDy=0;" edge="1" parent="1" source="2M9jYYgcKPKvZktC2pb6-7" target="2M9jYYgcKPKvZktC2pb6-8">
          <mxGeometry relative="1" as="geometry">
            <mxPoint x="200" y="300" as="sourcePoint" />
            <mxPoint x="360" y="300" as="targetPoint" />
          </mxGeometry>
        </mxCell>
        <mxCell id="2M9jYYgcKPKvZktC2pb6-25" value="" style="endArrow=none;html=1;rounded=0;exitX=0.5;exitY=0;exitDx=0;exitDy=0;" edge="1" parent="1" source="2M9jYYgcKPKvZktC2pb6-9" target="2M9jYYgcKPKvZktC2pb6-7">
          <mxGeometry relative="1" as="geometry">
            <mxPoint x="200" y="300" as="sourcePoint" />
            <mxPoint x="360" y="300" as="targetPoint" />
          </mxGeometry>
        </mxCell>
        <mxCell id="2M9jYYgcKPKvZktC2pb6-37" value="fill" style="ellipse;whiteSpace=wrap;html=1;align=center;" vertex="1" parent="1">
          <mxGeometry x="290" y="836.72" width="100" height="40" as="geometry" />
        </mxCell>
        <mxCell id="2M9jYYgcKPKvZktC2pb6-40" value="" style="endArrow=none;html=1;rounded=0;entryX=0.5;entryY=0;entryDx=0;entryDy=0;exitX=0.75;exitY=1;exitDx=0;exitDy=0;" edge="1" parent="1" source="2M9jYYgcKPKvZktC2pb6-10" target="2M9jYYgcKPKvZktC2pb6-37">
          <mxGeometry relative="1" as="geometry">
            <mxPoint x="280" y="816.72" as="sourcePoint" />
            <mxPoint x="490" y="726.72" as="targetPoint" />
          </mxGeometry>
        </mxCell>
        <mxCell id="2M9jYYgcKPKvZktC2pb6-42" value="" style="endArrow=none;html=1;rounded=0;entryX=0;entryY=0.5;entryDx=0;entryDy=0;exitX=1;exitY=0.5;exitDx=0;exitDy=0;" edge="1" parent="1" source="2M9jYYgcKPKvZktC2pb6-10" target="2M9jYYgcKPKvZktC2pb6-93">
          <mxGeometry relative="1" as="geometry">
            <mxPoint x="160" y="776.72" as="sourcePoint" />
            <mxPoint x="375" y="776.72" as="targetPoint" />
          </mxGeometry>
        </mxCell>
        <mxCell id="2M9jYYgcKPKvZktC2pb6-44" value="price" style="ellipse;whiteSpace=wrap;html=1;align=center;" vertex="1" parent="1">
          <mxGeometry x="400" y="836.72" width="100" height="40" as="geometry" />
        </mxCell>
        <mxCell id="2M9jYYgcKPKvZktC2pb6-46" value="" style="endArrow=none;html=1;rounded=0;entryX=0;entryY=0;entryDx=0;entryDy=0;exitX=1;exitY=1;exitDx=0;exitDy=0;" edge="1" parent="1" source="2M9jYYgcKPKvZktC2pb6-10" target="2M9jYYgcKPKvZktC2pb6-44">
          <mxGeometry relative="1" as="geometry">
            <mxPoint x="130" y="616.72" as="sourcePoint" />
            <mxPoint x="290" y="616.72" as="targetPoint" />
          </mxGeometry>
        </mxCell>
        <mxCell id="2M9jYYgcKPKvZktC2pb6-48" value="write order in" style="shape=rhombus;perimeter=rhombusPerimeter;whiteSpace=wrap;html=1;align=center;" vertex="1" parent="1">
          <mxGeometry x="220" y="120" width="120" height="60" as="geometry" />
        </mxCell>
        <mxCell id="2M9jYYgcKPKvZktC2pb6-49" value="" style="endArrow=none;html=1;rounded=0;exitX=0.5;exitY=0;exitDx=0;exitDy=0;entryX=0.5;entryY=1;entryDx=0;entryDy=0;" edge="1" parent="1" source="2M9jYYgcKPKvZktC2pb6-48" target="2M9jYYgcKPKvZktC2pb6-6">
          <mxGeometry relative="1" as="geometry">
            <mxPoint x="405" y="90" as="sourcePoint" />
            <mxPoint x="565" y="90" as="targetPoint" />
          </mxGeometry>
        </mxCell>
        <mxCell id="2M9jYYgcKPKvZktC2pb6-50" value="1" style="resizable=0;html=1;whiteSpace=wrap;align=right;verticalAlign=bottom;" connectable="0" vertex="1" parent="2M9jYYgcKPKvZktC2pb6-49">
          <mxGeometry x="1" relative="1" as="geometry" />
        </mxCell>
        <mxCell id="2M9jYYgcKPKvZktC2pb6-51" value="deal with" style="shape=rhombus;perimeter=rhombusPerimeter;whiteSpace=wrap;html=1;align=center;" vertex="1" parent="1">
          <mxGeometry x="235" y="420" width="90" height="60" as="geometry" />
        </mxCell>
        <mxCell id="2M9jYYgcKPKvZktC2pb6-52" value="" style="endArrow=none;html=1;rounded=0;exitX=1;exitY=0.5;exitDx=0;exitDy=0;entryX=0;entryY=0.5;entryDx=0;entryDy=0;" edge="1" parent="1" source="2M9jYYgcKPKvZktC2pb6-9" target="2M9jYYgcKPKvZktC2pb6-51">
          <mxGeometry relative="1" as="geometry">
            <mxPoint x="240" y="450" as="sourcePoint" />
            <mxPoint x="400" y="450" as="targetPoint" />
          </mxGeometry>
        </mxCell>
        <mxCell id="2M9jYYgcKPKvZktC2pb6-53" value="" style="endArrow=none;html=1;rounded=0;exitX=1;exitY=0.5;exitDx=0;exitDy=0;entryX=0;entryY=0.5;entryDx=0;entryDy=0;" edge="1" parent="1" source="2M9jYYgcKPKvZktC2pb6-51" target="2M9jYYgcKPKvZktC2pb6-8">
          <mxGeometry relative="1" as="geometry">
            <mxPoint x="240" y="450" as="sourcePoint" />
            <mxPoint x="400" y="450" as="targetPoint" />
          </mxGeometry>
        </mxCell>
        <mxCell id="2M9jYYgcKPKvZktC2pb6-57" value="" style="endArrow=none;dashed=1;html=1;rounded=0;" edge="1" parent="1">
          <mxGeometry width="50" height="50" relative="1" as="geometry">
            <mxPoint x="40" y="510" as="sourcePoint" />
            <mxPoint x="520" y="510" as="targetPoint" />
          </mxGeometry>
        </mxCell>
        <mxCell id="2M9jYYgcKPKvZktC2pb6-58" value="" style="endArrow=none;dashed=1;html=1;rounded=0;" edge="1" parent="1">
          <mxGeometry width="50" height="50" relative="1" as="geometry">
            <mxPoint x="520" y="390" as="sourcePoint" />
            <mxPoint x="520" y="510" as="targetPoint" />
          </mxGeometry>
        </mxCell>
        <mxCell id="2M9jYYgcKPKvZktC2pb6-59" value="" style="endArrow=none;dashed=1;html=1;rounded=0;" edge="1" parent="1">
          <mxGeometry width="50" height="50" relative="1" as="geometry">
            <mxPoint x="40" y="510" as="sourcePoint" />
            <mxPoint x="40" y="390" as="targetPoint" />
          </mxGeometry>
        </mxCell>
        <mxCell id="2M9jYYgcKPKvZktC2pb6-60" value="" style="endArrow=none;dashed=1;html=1;rounded=0;" edge="1" parent="1">
          <mxGeometry width="50" height="50" relative="1" as="geometry">
            <mxPoint x="40" y="390" as="sourcePoint" />
            <mxPoint x="520" y="390" as="targetPoint" />
          </mxGeometry>
        </mxCell>
        <mxCell id="2M9jYYgcKPKvZktC2pb6-61" value="" style="endArrow=none;html=1;rounded=0;exitX=0.5;exitY=1;exitDx=0;exitDy=0;entryX=0.5;entryY=0;entryDx=0;entryDy=0;" edge="1" parent="1" source="2M9jYYgcKPKvZktC2pb6-63" target="2M9jYYgcKPKvZktC2pb6-10">
          <mxGeometry relative="1" as="geometry">
            <mxPoint x="240" y="630" as="sourcePoint" />
            <mxPoint x="400" y="630" as="targetPoint" />
          </mxGeometry>
        </mxCell>
        <mxCell id="2M9jYYgcKPKvZktC2pb6-62" value="N" style="resizable=0;html=1;whiteSpace=wrap;align=right;verticalAlign=bottom;" connectable="0" vertex="1" parent="2M9jYYgcKPKvZktC2pb6-61">
          <mxGeometry x="1" relative="1" as="geometry" />
        </mxCell>
        <mxCell id="2M9jYYgcKPKvZktC2pb6-63" value="make a list of" style="shape=rhombus;perimeter=rhombusPerimeter;whiteSpace=wrap;html=1;align=center;" vertex="1" parent="1">
          <mxGeometry x="220" y="640" width="120" height="60" as="geometry" />
        </mxCell>
        <mxCell id="2M9jYYgcKPKvZktC2pb6-64" value="" style="endArrow=none;html=1;rounded=0;entryX=0.5;entryY=0;entryDx=0;entryDy=0;" edge="1" parent="1" target="2M9jYYgcKPKvZktC2pb6-63">
          <mxGeometry relative="1" as="geometry">
            <mxPoint x="280" y="480" as="sourcePoint" />
            <mxPoint x="400" y="480" as="targetPoint" />
          </mxGeometry>
        </mxCell>
        <mxCell id="2M9jYYgcKPKvZktC2pb6-66" value="make a deal" style="shape=rhombus;perimeter=rhombusPerimeter;whiteSpace=wrap;html=1;align=center;" vertex="1" parent="1">
          <mxGeometry x="580" y="420" width="120" height="60" as="geometry" />
        </mxCell>
        <mxCell id="2M9jYYgcKPKvZktC2pb6-67" value="" style="endArrow=none;html=1;rounded=0;entryX=0;entryY=0.5;entryDx=0;entryDy=0;" edge="1" parent="1" target="2M9jYYgcKPKvZktC2pb6-66">
          <mxGeometry relative="1" as="geometry">
            <mxPoint x="520" y="450" as="sourcePoint" />
            <mxPoint x="710" y="530" as="targetPoint" />
          </mxGeometry>
        </mxCell>
        <mxCell id="2M9jYYgcKPKvZktC2pb6-68" value="" style="endArrow=none;html=1;rounded=0;exitX=1;exitY=0.5;exitDx=0;exitDy=0;entryX=0;entryY=0.5;entryDx=0;entryDy=0;" edge="1" parent="1" source="2M9jYYgcKPKvZktC2pb6-66">
          <mxGeometry relative="1" as="geometry">
            <mxPoint x="650" y="560" as="sourcePoint" />
            <mxPoint x="770" y="450" as="targetPoint" />
          </mxGeometry>
        </mxCell>
        <mxCell id="2M9jYYgcKPKvZktC2pb6-69" value="N" style="resizable=0;html=1;whiteSpace=wrap;align=right;verticalAlign=bottom;" connectable="0" vertex="1" parent="2M9jYYgcKPKvZktC2pb6-68">
          <mxGeometry x="1" relative="1" as="geometry" />
        </mxCell>
        <mxCell id="2M9jYYgcKPKvZktC2pb6-70" value="put togrther" style="shape=rhombus;perimeter=rhombusPerimeter;whiteSpace=wrap;html=1;align=center;" vertex="1" parent="1">
          <mxGeometry x="500" y="650" width="120" height="60" as="geometry" />
        </mxCell>
        <mxCell id="2M9jYYgcKPKvZktC2pb6-74" value="" style="endArrow=none;html=1;rounded=0;entryX=0.5;entryY=1;entryDx=0;entryDy=0;exitX=1;exitY=0.5;exitDx=0;exitDy=0;" edge="1" parent="1" source="2M9jYYgcKPKvZktC2pb6-70">
          <mxGeometry relative="1" as="geometry">
            <mxPoint x="240" y="610" as="sourcePoint" />
            <mxPoint x="820" y="470" as="targetPoint" />
            <Array as="points">
              <mxPoint x="820" y="680" />
            </Array>
          </mxGeometry>
        </mxCell>
        <mxCell id="2M9jYYgcKPKvZktC2pb6-76" value="" style="endArrow=none;html=1;rounded=0;exitX=1;exitY=0.5;exitDx=0;exitDy=0;entryX=0;entryY=0.5;entryDx=0;entryDy=0;" edge="1" parent="1" source="2M9jYYgcKPKvZktC2pb6-94" target="2M9jYYgcKPKvZktC2pb6-6">
          <mxGeometry relative="1" as="geometry">
            <mxPoint x="130" y="49.999999999999886" as="sourcePoint" />
            <mxPoint x="400" y="200" as="targetPoint" />
          </mxGeometry>
        </mxCell>
        <mxCell id="2M9jYYgcKPKvZktC2pb6-77" value="change market price" style="shape=rhombus;perimeter=rhombusPerimeter;whiteSpace=wrap;html=1;align=center;" vertex="1" parent="1">
          <mxGeometry x="760" y="160" width="120" height="60" as="geometry" />
        </mxCell>
        <mxCell id="2M9jYYgcKPKvZktC2pb6-78" value="" style="endArrow=none;html=1;rounded=0;exitX=1;exitY=0.5;exitDx=0;exitDy=0;entryX=0.5;entryY=0;entryDx=0;entryDy=0;" edge="1" parent="1" source="2M9jYYgcKPKvZktC2pb6-6" target="2M9jYYgcKPKvZktC2pb6-77">
          <mxGeometry relative="1" as="geometry">
            <mxPoint x="410" y="49.5" as="sourcePoint" />
            <mxPoint x="570" y="49.5" as="targetPoint" />
            <Array as="points">
              <mxPoint x="820" y="50" />
            </Array>
          </mxGeometry>
        </mxCell>
        <mxCell id="2M9jYYgcKPKvZktC2pb6-79" value="" style="endArrow=none;html=1;rounded=0;entryX=0.5;entryY=0;entryDx=0;entryDy=0;exitX=0.5;exitY=1;exitDx=0;exitDy=0;" edge="1" parent="1" source="2M9jYYgcKPKvZktC2pb6-77">
          <mxGeometry relative="1" as="geometry">
            <mxPoint x="240" y="300" as="sourcePoint" />
            <mxPoint x="820" y="430" as="targetPoint" />
          </mxGeometry>
        </mxCell>
        <mxCell id="2M9jYYgcKPKvZktC2pb6-80" value="N" style="resizable=0;html=1;whiteSpace=wrap;align=right;verticalAlign=bottom;" connectable="0" vertex="1" parent="2M9jYYgcKPKvZktC2pb6-79">
          <mxGeometry x="1" relative="1" as="geometry" />
        </mxCell>
        <mxCell id="2M9jYYgcKPKvZktC2pb6-81" value="&amp;nbsp;price" style="ellipse;whiteSpace=wrap;html=1;align=center;" vertex="1" parent="1">
          <mxGeometry x="1030" y="540" width="100" height="40" as="geometry" />
        </mxCell>
        <mxCell id="2M9jYYgcKPKvZktC2pb6-84" value="min fill remainder" style="ellipse;whiteSpace=wrap;html=1;align=center;" vertex="1" parent="1">
          <mxGeometry x="1010" y="600" width="100" height="40" as="geometry" />
        </mxCell>
        <mxCell id="2M9jYYgcKPKvZktC2pb6-85" value="" style="endArrow=none;html=1;rounded=0;exitX=1;exitY=0.5;exitDx=0;exitDy=0;entryX=0;entryY=0.5;entryDx=0;entryDy=0;" edge="1" parent="1">
          <mxGeometry relative="1" as="geometry">
            <mxPoint x="870" y="450" as="sourcePoint" />
            <mxPoint x="1030" y="420" as="targetPoint" />
          </mxGeometry>
        </mxCell>
        <mxCell id="2M9jYYgcKPKvZktC2pb6-86" value="" style="endArrow=none;html=1;rounded=0;exitX=1;exitY=0.5;exitDx=0;exitDy=0;entryX=0;entryY=0.5;entryDx=0;entryDy=0;" edge="1" parent="1">
          <mxGeometry relative="1" as="geometry">
            <mxPoint x="870" y="450" as="sourcePoint" />
            <mxPoint x="1050" y="490" as="targetPoint" />
          </mxGeometry>
        </mxCell>
        <mxCell id="2M9jYYgcKPKvZktC2pb6-87" value="" style="endArrow=none;html=1;rounded=0;exitX=1;exitY=0.5;exitDx=0;exitDy=0;entryX=0;entryY=0.5;entryDx=0;entryDy=0;" edge="1" parent="1" target="2M9jYYgcKPKvZktC2pb6-81">
          <mxGeometry relative="1" as="geometry">
            <mxPoint x="870" y="450" as="sourcePoint" />
            <mxPoint x="1230" y="390" as="targetPoint" />
          </mxGeometry>
        </mxCell>
        <mxCell id="2M9jYYgcKPKvZktC2pb6-88" value="" style="endArrow=none;html=1;rounded=0;exitX=1;exitY=1;exitDx=0;exitDy=0;entryX=0;entryY=0.5;entryDx=0;entryDy=0;" edge="1" parent="1" source="2M9jYYgcKPKvZktC2pb6-97" target="2M9jYYgcKPKvZktC2pb6-84">
          <mxGeometry relative="1" as="geometry">
            <mxPoint x="870" y="450" as="sourcePoint" />
            <mxPoint x="1230" y="390" as="targetPoint" />
          </mxGeometry>
        </mxCell>
        <mxCell id="2M9jYYgcKPKvZktC2pb6-89" value="book_id" style="ellipse;whiteSpace=wrap;html=1;align=center;fontStyle=4;" vertex="1" parent="1">
          <mxGeometry x="375" y="230" width="100" height="40" as="geometry" />
        </mxCell>
        <mxCell id="2M9jYYgcKPKvZktC2pb6-90" value="" style="endArrow=none;html=1;rounded=0;exitX=1;exitY=0.5;exitDx=0;exitDy=0;entryX=0;entryY=0.5;entryDx=0;entryDy=0;" edge="1" parent="1" source="2M9jYYgcKPKvZktC2pb6-4" target="2M9jYYgcKPKvZktC2pb6-89">
          <mxGeometry relative="1" as="geometry">
            <mxPoint x="340" y="380" as="sourcePoint" />
            <mxPoint x="500" y="380" as="targetPoint" />
          </mxGeometry>
        </mxCell>
        <mxCell id="2M9jYYgcKPKvZktC2pb6-91" value="order_id" style="ellipse;whiteSpace=wrap;html=1;align=center;fontStyle=4;" vertex="1" parent="1">
          <mxGeometry x="60" y="756.72" width="100" height="40" as="geometry" />
        </mxCell>
        <mxCell id="2M9jYYgcKPKvZktC2pb6-92" value="" style="endArrow=none;html=1;rounded=0;entryX=1;entryY=0.5;entryDx=0;entryDy=0;exitX=0;exitY=0.5;exitDx=0;exitDy=0;" edge="1" parent="1" source="2M9jYYgcKPKvZktC2pb6-10" target="2M9jYYgcKPKvZktC2pb6-91">
          <mxGeometry relative="1" as="geometry">
            <mxPoint x="290" y="620" as="sourcePoint" />
            <mxPoint x="450" y="620" as="targetPoint" />
          </mxGeometry>
        </mxCell>
        <mxCell id="2M9jYYgcKPKvZktC2pb6-93" value="&lt;div&gt;type(sale/purc&lt;/div&gt;&lt;div&gt;hase)&lt;/div&gt;" style="ellipse;shape=doubleEllipse;margin=3;whiteSpace=wrap;html=1;align=center;" vertex="1" parent="1">
          <mxGeometry x="400" y="756.72" width="100" height="40" as="geometry" />
        </mxCell>
        <mxCell id="2M9jYYgcKPKvZktC2pb6-94" value="in time price" style="ellipse;whiteSpace=wrap;html=1;align=center;dashed=1;" vertex="1" parent="1">
          <mxGeometry x="30" y="30" width="100" height="40" as="geometry" />
        </mxCell>
        <mxCell id="2M9jYYgcKPKvZktC2pb6-96" value="" style="endArrow=none;html=1;rounded=0;exitX=1;exitY=0;exitDx=0;exitDy=0;entryX=0;entryY=1;entryDx=0;entryDy=0;" edge="1" parent="1" target="2M9jYYgcKPKvZktC2pb6-10">
          <mxGeometry relative="1" as="geometry">
            <mxPoint x="155.35533905932743" y="842.5778643762692" as="sourcePoint" />
            <mxPoint x="450" y="610" as="targetPoint" />
          </mxGeometry>
        </mxCell>
        <mxCell id="2M9jYYgcKPKvZktC2pb6-97" value="&lt;div&gt;trade&lt;/div&gt;" style="shape=ext;margin=3;double=1;whiteSpace=wrap;html=1;align=center;" vertex="1" parent="1">
          <mxGeometry x="770" y="430" width="100" height="40" as="geometry" />
        </mxCell>
        <mxCell id="2M9jYYgcKPKvZktC2pb6-100" value="" style="endArrow=none;html=1;rounded=0;exitX=0.75;exitY=0;exitDx=0;exitDy=0;entryX=0.5;entryY=1;entryDx=0;entryDy=0;" edge="1" parent="1" source="2M9jYYgcKPKvZktC2pb6-97">
          <mxGeometry relative="1" as="geometry">
            <mxPoint x="290" y="370" as="sourcePoint" />
            <mxPoint x="910" y="380" as="targetPoint" />
          </mxGeometry>
        </mxCell>
        <mxCell id="2M9jYYgcKPKvZktC2pb6-101" value="" style="endArrow=none;html=1;rounded=0;exitX=1;exitY=0;exitDx=0;exitDy=0;entryX=0.5;entryY=1;entryDx=0;entryDy=0;" edge="1" parent="1" source="2M9jYYgcKPKvZktC2pb6-97">
          <mxGeometry relative="1" as="geometry">
            <mxPoint x="290" y="370" as="sourcePoint" />
            <mxPoint x="1030" y="380" as="targetPoint" />
          </mxGeometry>
        </mxCell>
        <mxCell id="2M9jYYgcKPKvZktC2pb6-102" value="" style="endArrow=none;dashed=1;html=1;rounded=0;" edge="1" parent="1">
          <mxGeometry width="50" height="50" relative="1" as="geometry">
            <mxPoint x="870" y="378.75" as="sourcePoint" />
            <mxPoint x="1070" y="378.75" as="targetPoint" />
            <Array as="points">
              <mxPoint x="970" y="378.75" />
            </Array>
          </mxGeometry>
        </mxCell>
        <mxCell id="2M9jYYgcKPKvZktC2pb6-105" value="" style="endArrow=none;html=1;rounded=0;entryX=0;entryY=0.5;entryDx=0;entryDy=0;exitX=0.75;exitY=1;exitDx=0;exitDy=0;" edge="1" parent="1" source="2M9jYYgcKPKvZktC2pb6-97">
          <mxGeometry relative="1" as="geometry">
            <mxPoint x="280" y="350" as="sourcePoint" />
            <mxPoint x="930" y="670" as="targetPoint" />
          </mxGeometry>
        </mxCell>
        <mxCell id="2M9jYYgcKPKvZktC2pb6-106" value="&lt;span style=&quot;border-bottom: 1px dotted&quot;&gt;market_id&lt;/span&gt;" style="ellipse;whiteSpace=wrap;html=1;align=center;" vertex="1" parent="1">
          <mxGeometry x="930" y="650" width="100" height="40" as="geometry" />
        </mxCell>
        <mxCell id="2M9jYYgcKPKvZktC2pb6-109" value="" style="endArrow=none;html=1;rounded=0;exitX=1;exitY=0.5;exitDx=0;exitDy=0;entryX=0;entryY=1;entryDx=0;entryDy=0;" edge="1" parent="1" target="2M9jYYgcKPKvZktC2pb6-6">
          <mxGeometry relative="1" as="geometry">
            <mxPoint x="130" y="119.99999999999989" as="sourcePoint" />
            <mxPoint x="440" y="170" as="targetPoint" />
          </mxGeometry>
        </mxCell>
        <mxCell id="2M9jYYgcKPKvZktC2pb6-113" value="&lt;div&gt;&lt;span style=&quot;border-bottom: 1px dotted&quot;&gt;client_id&lt;/span&gt;&lt;/div&gt;&lt;div&gt;&lt;span style=&quot;border-bottom: 1px dotted&quot;&gt;&lt;/span&gt;&lt;/div&gt;" style="ellipse;whiteSpace=wrap;html=1;align=center;" vertex="1" parent="1">
          <mxGeometry x="60" y="836.72" width="100" height="40" as="geometry" />
        </mxCell>
        <mxCell id="2M9jYYgcKPKvZktC2pb6-115" value="market_id" style="ellipse;whiteSpace=wrap;html=1;align=center;fontStyle=4;" vertex="1" parent="1">
          <mxGeometry x="30" y="110" width="100" height="40" as="geometry" />
        </mxCell>
        <mxCell id="2M9jYYgcKPKvZktC2pb6-116" value="make an" style="shape=rhombus;perimeter=rhombusPerimeter;whiteSpace=wrap;html=1;align=center;" vertex="1" parent="1">
          <mxGeometry x="-60" y="650" width="120" height="60" as="geometry" />
        </mxCell>
        <mxCell id="2M9jYYgcKPKvZktC2pb6-117" value="" style="endArrow=none;html=1;rounded=0;exitX=1;exitY=0.5;exitDx=0;exitDy=0;entryX=0;entryY=0;entryDx=0;entryDy=0;" edge="1" parent="1" source="2M9jYYgcKPKvZktC2pb6-116" target="2M9jYYgcKPKvZktC2pb6-10">
          <mxGeometry relative="1" as="geometry">
            <mxPoint x="550" y="670" as="sourcePoint" />
            <mxPoint x="710" y="670" as="targetPoint" />
            <Array as="points">
              <mxPoint x="180" y="680" />
            </Array>
          </mxGeometry>
        </mxCell>
        <mxCell id="2M9jYYgcKPKvZktC2pb6-118" value="user" style="rounded=1;arcSize=10;whiteSpace=wrap;html=1;align=center;" vertex="1" parent="1">
          <mxGeometry x="-270" y="660" width="100" height="40" as="geometry" />
        </mxCell>
        <mxCell id="2M9jYYgcKPKvZktC2pb6-119" value="" style="endArrow=none;html=1;rounded=0;exitX=1;exitY=0.5;exitDx=0;exitDy=0;entryX=0;entryY=0.5;entryDx=0;entryDy=0;" edge="1" parent="1" source="2M9jYYgcKPKvZktC2pb6-118" target="2M9jYYgcKPKvZktC2pb6-116">
          <mxGeometry relative="1" as="geometry">
            <mxPoint x="310" y="700" as="sourcePoint" />
            <mxPoint x="470" y="700" as="targetPoint" />
          </mxGeometry>
        </mxCell>
        <mxCell id="2M9jYYgcKPKvZktC2pb6-120" value="&lt;span style=&quot;border-bottom: 1px dotted&quot;&gt;book_id&lt;br&gt;&lt;/span&gt;" style="ellipse;whiteSpace=wrap;html=1;align=center;" vertex="1" parent="1">
          <mxGeometry x="870" y="700" width="100" height="40" as="geometry" />
        </mxCell>
        <mxCell id="2M9jYYgcKPKvZktC2pb6-121" value="" style="endArrow=none;html=1;rounded=0;entryX=0;entryY=0;entryDx=0;entryDy=0;exitX=0.75;exitY=1;exitDx=0;exitDy=0;" edge="1" parent="1" source="2M9jYYgcKPKvZktC2pb6-97" target="2M9jYYgcKPKvZktC2pb6-120">
          <mxGeometry relative="1" as="geometry">
            <mxPoint x="310" y="530" as="sourcePoint" />
            <mxPoint x="470" y="530" as="targetPoint" />
          </mxGeometry>
        </mxCell>
        <mxCell id="2M9jYYgcKPKvZktC2pb6-122" value="&lt;div&gt;&lt;span style=&quot;border-bottom: 1px dotted&quot;&gt;taker_id&lt;/span&gt;&lt;/div&gt;&lt;div&gt;&lt;span style=&quot;border-bottom: 1px dotted&quot;&gt;&lt;/span&gt;&lt;/div&gt;" style="ellipse;whiteSpace=wrap;html=1;align=center;" vertex="1" parent="1">
          <mxGeometry x="1030" y="400" width="100" height="40" as="geometry" />
        </mxCell>
        <mxCell id="2M9jYYgcKPKvZktC2pb6-123" value="&lt;span style=&quot;border-bottom: 1px dotted&quot;&gt;maker_id&lt;br&gt;&lt;/span&gt;" style="ellipse;whiteSpace=wrap;html=1;align=center;" vertex="1" parent="1">
          <mxGeometry x="1050" y="470" width="100" height="40" as="geometry" />
        </mxCell>
        <mxCell id="2M9jYYgcKPKvZktC2pb6-128" value="&lt;span style=&quot;border-bottom: 1px dotted&quot;&gt;maker_order_id&lt;br&gt;&lt;/span&gt;" style="ellipse;whiteSpace=wrap;html=1;align=center;" vertex="1" parent="1">
          <mxGeometry x="980" y="340" width="100" height="40" as="geometry" />
        </mxCell>
        <mxCell id="2M9jYYgcKPKvZktC2pb6-129" value="" style="endArrow=none;dashed=1;html=1;rounded=0;entryX=1;entryY=1;entryDx=0;entryDy=0;exitX=0;exitY=1;exitDx=0;exitDy=0;" edge="1" parent="1" target="2M9jYYgcKPKvZktC2pb6-126">
          <mxGeometry width="50" height="50" relative="1" as="geometry">
            <mxPoint x="874.644660940673" y="374.14213562373084" as="sourcePoint" />
            <mxPoint x="1065.355339059327" y="374.14213562373106" as="targetPoint" />
          </mxGeometry>
        </mxCell>
        <mxCell id="2M9jYYgcKPKvZktC2pb6-126" value="&lt;span style=&quot;border-bottom: 1px dotted&quot;&gt;taker_order_id&lt;br&gt;&lt;/span&gt;" style="ellipse;whiteSpace=wrap;html=1;align=center;" vertex="1" parent="1">
          <mxGeometry x="860" y="340" width="100" height="40" as="geometry" />
        </mxCell>
        <mxCell id="2M9jYYgcKPKvZktC2pb6-132" value="&lt;span style=&quot;border-bottom: 1px dotted&quot;&gt;book_id&lt;br&gt;&lt;/span&gt;" style="ellipse;whiteSpace=wrap;html=1;align=center;" vertex="1" parent="1">
          <mxGeometry x="170" y="836.72" width="100" height="40" as="geometry" />
        </mxCell>
        <mxCell id="2M9jYYgcKPKvZktC2pb6-133" value="" style="endArrow=none;html=1;rounded=0;exitX=0.5;exitY=0;exitDx=0;exitDy=0;entryX=0.25;entryY=1;entryDx=0;entryDy=0;" edge="1" parent="1" source="2M9jYYgcKPKvZktC2pb6-132" target="2M9jYYgcKPKvZktC2pb6-10">
          <mxGeometry relative="1" as="geometry">
            <mxPoint x="310" y="650" as="sourcePoint" />
            <mxPoint x="470" y="650" as="targetPoint" />
          </mxGeometry>
        </mxCell>
        <mxCell id="2M9jYYgcKPKvZktC2pb6-136" value="&lt;span style=&quot;border-bottom: 1px dotted&quot;&gt;market_id&lt;br&gt;&lt;/span&gt;" style="ellipse;whiteSpace=wrap;html=1;align=center;" vertex="1" parent="1">
          <mxGeometry x="90" y="230" width="100" height="40" as="geometry" />
        </mxCell>
        <mxCell id="2M9jYYgcKPKvZktC2pb6-137" value="" style="endArrow=none;html=1;rounded=0;exitX=1;exitY=0.5;exitDx=0;exitDy=0;entryX=0;entryY=0.5;entryDx=0;entryDy=0;" edge="1" parent="1" source="2M9jYYgcKPKvZktC2pb6-136" target="2M9jYYgcKPKvZktC2pb6-4">
          <mxGeometry relative="1" as="geometry">
            <mxPoint x="310" y="170" as="sourcePoint" />
            <mxPoint x="470" y="170" as="targetPoint" />
          </mxGeometry>
        </mxCell>
        <mxCell id="2M9jYYgcKPKvZktC2pb6-138" value="" style="shape=link;html=1;rounded=0;exitX=0;exitY=0.5;exitDx=0;exitDy=0;entryX=1;entryY=0;entryDx=0;entryDy=0;" edge="1" parent="1" source="2M9jYYgcKPKvZktC2pb6-70" target="2M9jYYgcKPKvZktC2pb6-10">
          <mxGeometry relative="1" as="geometry">
            <mxPoint x="310" y="550" as="sourcePoint" />
            <mxPoint x="470" y="550" as="targetPoint" />
            <Array as="points">
              <mxPoint x="370" y="680" />
            </Array>
          </mxGeometry>
        </mxCell>
        <mxCell id="2M9jYYgcKPKvZktC2pb6-139" value="1" style="resizable=0;html=1;whiteSpace=wrap;align=right;verticalAlign=bottom;" connectable="0" vertex="1" parent="2M9jYYgcKPKvZktC2pb6-138">
          <mxGeometry x="1" relative="1" as="geometry" />
        </mxCell>
      </root>
    </mxGraphModel>
  </diagram>
</mxfile>
